#define close_hover_width 10
#define close_hover_height 10
static unsigned char close_hover_bits[] = {
	0x03, 0x03, 0x87, 0x03, 0xCE, 0x01, 0xFC, 0x00, 0x78, 0x00,
	0x78, 0x00, 0xFC, 0x00, 0xCE, 0x01, 0x87, 0x03, 0x03, 0x03
};
