#define max_toggled_width 8
#define max_toggled_height 8
static unsigned char max_toggled_bits[] = {
	0xFC, 0xFC, 0x84, 0x9F, 0x91, 0xF1, 0x11, 0x1F
};
