#define max_hover_width 10
#define max_hover_height 10
static unsigned char max_hover_bits[] = {
	0xFF, 0x03, 0xFF, 0x03, 0x01, 0x02, 0x01, 0x02, 0x01, 0x02,
	0x01, 0x02, 0x01, 0x02, 0x01, 0x02, 0x01, 0x02, 0xFF, 0x03
};
