#define menu_width 8
#define menu_height 8
static unsigned char menu_bits[] = {
	0x00, 0x00, 0xC3, 0xE7, 0x7E, 0x3C, 0x18, 0x00
};
